# xmcd
#
# Track frame offsets:
#	150
#	14300
#	32210
#	54425
#	68880
#	93655
#	109055
#	130670
#	149875
#	166860
#	185795
#
# Disc length: 2763 seconds
#
# Revision: 0
# Processed by: cddbd v1.5.2PL0 Copyright (c) Steve Scherf et al.
# Submitted via: EZCDAudioConverter 1.0.3.1
#
DISCID=9f0ac90b
DTITLE=Various Artist - 2012 Steppin' Real Smooth
DYEAR=2012
DGENRE=R&B
TTITLE0=Michelle El and Wale - Me, Myself and Irene
TTITLE1=Floyd Robinson - Better Days
TTITLE2=Naoki Kenji - Bedtime
TTITLE3=Chris Youngblood - Tell The Truth
TTITLE4=Pop Machine - Only You
TTITLE5=Trey songz and C. Thomas - Feel So Good
TTITLE6=Carmichael - Pot Of Gold
TTITLE7=A. Wilson - We Were Meant To Be
TTITLE8=Lamont Star - Float Away
TTITLE9=Laurnea - Keep Your Head Up
TTITLE10=Dial Tone - A Steppers Delight
EXTD=
EXTT0=
EXTT1=
EXTT2=
EXTT3=
EXTT4=
EXTT5=
EXTT6=
EXTT7=
EXTT8=
EXTT9=
EXTT10=
PLAYORDER=
